%TF.GenerationSoftware,KiCad,Pcbnew,9.0.7*%
%TF.CreationDate,2026-04-08T20:28:38+05:30*%
%TF.ProjectId,water_alaram,77617465-725f-4616-9c61-72616d2e6b69,rev?*%
%TF.SameCoordinates,Original*%
%TF.FileFunction,Copper,L2,Bot*%
%TF.FilePolarity,Positive*%
%FSLAX46Y46*%
G04 Gerber Fmt 4.6, Leading zero omitted, Abs format (unit mm)*
G04 Created by KiCad (PCBNEW 9.0.7) date 2026-04-08 20:28:38*
%MOMM*%
%LPD*%
G01*
G04 APERTURE LIST*
G04 Aperture macros list*
%AMRoundRect*
0 Rectangle with rounded corners*
0 $1 Rounding radius*
0 $2 $3 $4 $5 $6 $7 $8 $9 X,Y pos of 4 corners*
0 Add a 4 corners polygon primitive as box body*
4,1,4,$2,$3,$4,$5,$6,$7,$8,$9,$2,$3,0*
0 Add four circle primitives for the rounded corners*
1,1,$1+$1,$2,$3*
1,1,$1+$1,$4,$5*
1,1,$1+$1,$6,$7*
1,1,$1+$1,$8,$9*
0 Add four rect primitives between the rounded corners*
20,1,$1+$1,$2,$3,$4,$5,0*
20,1,$1+$1,$4,$5,$6,$7,0*
20,1,$1+$1,$6,$7,$8,$9,0*
20,1,$1+$1,$8,$9,$2,$3,0*%
G04 Aperture macros list end*
%TA.AperFunction,ComponentPad*%
%ADD10R,1.500000X1.050000*%
%TD*%
%TA.AperFunction,ComponentPad*%
%ADD11O,1.500000X1.050000*%
%TD*%
%TA.AperFunction,ComponentPad*%
%ADD12RoundRect,0.250000X1.050000X-1.050000X1.050000X1.050000X-1.050000X1.050000X-1.050000X-1.050000X0*%
%TD*%
%TA.AperFunction,ComponentPad*%
%ADD13C,2.600000*%
%TD*%
%TA.AperFunction,ComponentPad*%
%ADD14R,2.000000X2.000000*%
%TD*%
%TA.AperFunction,ComponentPad*%
%ADD15C,2.000000*%
%TD*%
%TA.AperFunction,ComponentPad*%
%ADD16R,1.800000X1.800000*%
%TD*%
%TA.AperFunction,ComponentPad*%
%ADD17C,1.800000*%
%TD*%
%TA.AperFunction,ComponentPad*%
%ADD18C,1.400000*%
%TD*%
%TA.AperFunction,ComponentPad*%
%ADD19R,2.000000X4.600000*%
%TD*%
%TA.AperFunction,ComponentPad*%
%ADD20O,2.000000X4.200000*%
%TD*%
%TA.AperFunction,ComponentPad*%
%ADD21C,1.600000*%
%TD*%
%TA.AperFunction,ViaPad*%
%ADD22C,0.600000*%
%TD*%
%TA.AperFunction,Conductor*%
%ADD23C,0.200000*%
%TD*%
G04 APERTURE END LIST*
D10*
%TO.P,Q1,1,S*%
%TO.N,GND*%
X163040000Y-95340000D03*
D11*
%TO.P,Q1,2,G*%
%TO.N,/Gate*%
X163040000Y-96610000D03*
%TO.P,Q1,3,D*%
%TO.N,Net-(BZ1--)*%
X163040000Y-97880000D03*
%TD*%
D12*
%TO.P,J2,1,Pin_1*%
%TO.N,VCC*%
X170357500Y-96290000D03*
D13*
%TO.P,J2,2,Pin_2*%
%TO.N,/Gate*%
X170357500Y-91290000D03*
%TD*%
D14*
%TO.P,BZ1,1,+*%
%TO.N,VCC*%
X145390000Y-104890000D03*
D15*
%TO.P,BZ1,2,-*%
%TO.N,Net-(BZ1--)*%
X145390000Y-89890000D03*
%TD*%
D16*
%TO.P,D1,1,K*%
%TO.N,Net-(D1-K)*%
X161485000Y-82640000D03*
D17*
%TO.P,D1,2,A*%
%TO.N,VCC*%
X164025000Y-82640000D03*
%TD*%
D18*
%TO.P,R2,1*%
%TO.N,Net-(D1-K)*%
X154693949Y-82673949D03*
%TO.P,R2,2*%
%TO.N,GND*%
X158286051Y-86266051D03*
%TD*%
D19*
%TO.P,J1,1*%
%TO.N,VCC*%
X162360000Y-104460000D03*
D20*
%TO.P,J1,2*%
%TO.N,GND*%
X168660000Y-104460000D03*
%TD*%
D21*
%TO.P,C1,1*%
%TO.N,/Gate*%
X164300000Y-90180000D03*
%TO.P,C1,2*%
%TO.N,GND*%
X164300000Y-92680000D03*
%TD*%
D18*
%TO.P,R1,1*%
%TO.N,/Gate*%
X161880000Y-87690000D03*
%TO.P,R1,2*%
%TO.N,GND*%
X161880000Y-92770000D03*
%TD*%
D22*
%TO.N,/Gate*%
X157350000Y-92090000D03*
%TD*%
D23*
%TO.N,/Gate*%
X157350000Y-94870000D02*
X159090000Y-96610000D01*
X157350000Y-92090000D02*
X157350000Y-94870000D01*
X159090000Y-96610000D02*
X164310000Y-96610000D01*
X157350000Y-92090000D02*
X157350000Y-92120000D01*
%TD*%
%TA.AperFunction,Conductor*%
%TO.N,VCC*%
G36*
X154079820Y-81430185D02*
G01*
X154125575Y-81482989D01*
X154135519Y-81552147D01*
X154106494Y-81615703D01*
X154069075Y-81644985D01*
X154064751Y-81647187D01*
X153991122Y-81700683D01*
X153911876Y-81758259D01*
X153911874Y-81758261D01*
X153911873Y-81758261D01*
X153778261Y-81891873D01*
X153778261Y-81891874D01*
X153778259Y-81891876D01*
X153767821Y-81906243D01*
X153667189Y-82044749D01*
X153581403Y-82213112D01*
X153523008Y-82392830D01*
X153493449Y-82579462D01*
X153493449Y-82768435D01*
X153523008Y-82955067D01*
X153581403Y-83134785D01*
X153603122Y-83177410D01*
X153667189Y-83303148D01*
X153778259Y-83456022D01*
X153911876Y-83589639D01*
X154064750Y-83700709D01*
X154137999Y-83738031D01*
X154233112Y-83786494D01*
X154233114Y-83786494D01*
X154233117Y-83786496D01*
X154329446Y-83817795D01*
X154412830Y-83844889D01*
X154599463Y-83874449D01*
X154599468Y-83874449D01*
X154788435Y-83874449D01*
X154975067Y-83844889D01*
X154977471Y-83844108D01*
X155154781Y-83786496D01*
X155323148Y-83700709D01*
X155476022Y-83589639D01*
X155609639Y-83456022D01*
X155720709Y-83303148D01*
X155806496Y-83134781D01*
X155864889Y-82955067D01*
X155881346Y-82851161D01*
X155894449Y-82768435D01*
X155894449Y-82579462D01*
X155864889Y-82392830D01*
X155830322Y-82286446D01*
X155806496Y-82213117D01*
X155806494Y-82213114D01*
X155806494Y-82213112D01*
X155720708Y-82044749D01*
X155713242Y-82034473D01*
X155609639Y-81891876D01*
X155476022Y-81758259D01*
X155396776Y-81700683D01*
X155323146Y-81647187D01*
X155318823Y-81644985D01*
X155268027Y-81597011D01*
X155251231Y-81529190D01*
X155273768Y-81463055D01*
X155328483Y-81419603D01*
X155375117Y-81410500D01*
X159995122Y-81410500D01*
X160062161Y-81430185D01*
X160107916Y-81482989D01*
X160117860Y-81552147D01*
X160111304Y-81577832D01*
X160090909Y-81632514D01*
X160090908Y-81632516D01*
X160084501Y-81692116D01*
X160084501Y-81692123D01*
X160084500Y-81692135D01*
X160084500Y-83587870D01*
X160084501Y-83587876D01*
X160090908Y-83647483D01*
X160141202Y-83782328D01*
X160141206Y-83782335D01*
X160227452Y-83897544D01*
X160227455Y-83897547D01*
X160342664Y-83983793D01*
X160342671Y-83983797D01*
X160477517Y-84034091D01*
X160477516Y-84034091D01*
X160484444Y-84034835D01*
X160537127Y-84040500D01*
X162432872Y-84040499D01*
X162492483Y-84034091D01*
X162627331Y-83983796D01*
X162742546Y-83897546D01*
X162828796Y-83782331D01*
X162859239Y-83700709D01*
X162859327Y-83700474D01*
X162864883Y-83685575D01*
X162879091Y-83647483D01*
X162885500Y-83587873D01*
X162885499Y-83477304D01*
X162905183Y-83410268D01*
X162921818Y-83389626D01*
X163582861Y-82728584D01*
X163605667Y-82813694D01*
X163664910Y-82916306D01*
X163748694Y-83000090D01*
X163851306Y-83059333D01*
X163936414Y-83082137D01*
X163227485Y-83791065D01*
X163227485Y-83791066D01*
X163291243Y-83837388D01*
X163487589Y-83937432D01*
X163697164Y-84005526D01*
X163914819Y-84040000D01*
X164135181Y-84040000D01*
X164352835Y-84005526D01*
X164562410Y-83937432D01*
X164758760Y-83837386D01*
X164822513Y-83791066D01*
X164822514Y-83791066D01*
X164113585Y-83082138D01*
X164198694Y-83059333D01*
X164301306Y-83000090D01*
X164385090Y-82916306D01*
X164444333Y-82813694D01*
X164467137Y-82728585D01*
X165176066Y-83437514D01*
X165176066Y-83437513D01*
X165222386Y-83373760D01*
X165322432Y-83177410D01*
X165390526Y-82967835D01*
X165425000Y-82750181D01*
X165425000Y-82529818D01*
X165390526Y-82312164D01*
X165322432Y-82102589D01*
X165222388Y-81906243D01*
X165176066Y-81842485D01*
X165176065Y-81842485D01*
X164467137Y-82551413D01*
X164444333Y-82466306D01*
X164385090Y-82363694D01*
X164301306Y-82279910D01*
X164198694Y-82220667D01*
X164113583Y-82197861D01*
X164862936Y-81448510D01*
X164865578Y-81451152D01*
X164890287Y-81426092D01*
X164950484Y-81410500D01*
X172704108Y-81410500D01*
X172766249Y-81410500D01*
X172773736Y-81410726D01*
X173063796Y-81428271D01*
X173078657Y-81430075D01*
X173360798Y-81481780D01*
X173375335Y-81485363D01*
X173649172Y-81570695D01*
X173663163Y-81576000D01*
X173924743Y-81693727D01*
X173937989Y-81700680D01*
X174183465Y-81849075D01*
X174195776Y-81857573D01*
X174421573Y-82034473D01*
X174432781Y-82044403D01*
X174635596Y-82247218D01*
X174645526Y-82258426D01*
X174808389Y-82466306D01*
X174822422Y-82484217D01*
X174830928Y-82496540D01*
X174979316Y-82742004D01*
X174986275Y-82755263D01*
X175103997Y-83016831D01*
X175109306Y-83030832D01*
X175194635Y-83304663D01*
X175198219Y-83319201D01*
X175249923Y-83601340D01*
X175251728Y-83616205D01*
X175269274Y-83906263D01*
X175269500Y-83913750D01*
X175269500Y-114796249D01*
X175269274Y-114803736D01*
X175251728Y-115093794D01*
X175249923Y-115108659D01*
X175198219Y-115390798D01*
X175194635Y-115405336D01*
X175109306Y-115679167D01*
X175103997Y-115693168D01*
X174986275Y-115954736D01*
X174979316Y-115967995D01*
X174830928Y-116213459D01*
X174822422Y-116225782D01*
X174645526Y-116451573D01*
X174635596Y-116462781D01*
X174432781Y-116665596D01*
X174421573Y-116675526D01*
X174195782Y-116852422D01*
X174183459Y-116860928D01*
X173937995Y-117009316D01*
X173924736Y-117016275D01*
X173663168Y-117133997D01*
X173649167Y-117139306D01*
X173375336Y-117224635D01*
X173360798Y-117228219D01*
X173078659Y-117279923D01*
X173063794Y-117281728D01*
X172773736Y-117299274D01*
X172766249Y-117299500D01*
X146583751Y-117299500D01*
X146576264Y-117299274D01*
X146286205Y-117281728D01*
X146271340Y-117279923D01*
X145989201Y-117228219D01*
X145974663Y-117224635D01*
X145700832Y-117139306D01*
X145686831Y-117133997D01*
X145425263Y-117016275D01*
X145412004Y-117009316D01*
X145166540Y-116860928D01*
X145154217Y-116852422D01*
X144928426Y-116675526D01*
X144917218Y-116665596D01*
X144714403Y-116462781D01*
X144704473Y-116451573D01*
X144527573Y-116225776D01*
X144519075Y-116213465D01*
X144370680Y-115967989D01*
X144363727Y-115954743D01*
X144246000Y-115693163D01*
X144240693Y-115679167D01*
X144155364Y-115405336D01*
X144151780Y-115390798D01*
X144100076Y-115108659D01*
X144098271Y-115093794D01*
X144080726Y-114803736D01*
X144080500Y-114796249D01*
X144080500Y-113068711D01*
X168289500Y-113068711D01*
X168289500Y-113311288D01*
X168321161Y-113551785D01*
X168383947Y-113786104D01*
X168476773Y-114010205D01*
X168476776Y-114010212D01*
X168598064Y-114220289D01*
X168598066Y-114220292D01*
X168598067Y-114220293D01*
X168745733Y-114412736D01*
X168745739Y-114412743D01*
X168917256Y-114584260D01*
X168917262Y-114584265D01*
X169109711Y-114731936D01*
X169319788Y-114853224D01*
X169543900Y-114946054D01*
X169778211Y-115008838D01*
X169958586Y-115032584D01*
X170018711Y-115040500D01*
X170018712Y-115040500D01*
X170261289Y-115040500D01*
X170309388Y-115034167D01*
X170501789Y-115008838D01*
X170736100Y-114946054D01*
X170960212Y-114853224D01*
X171170289Y-114731936D01*
X171362738Y-114584265D01*
X171534265Y-114412738D01*
X171681936Y-114220289D01*
X171803224Y-114010212D01*
X171896054Y-113786100D01*
X171958838Y-113551789D01*
X171990500Y-113311288D01*
X171990500Y-113068712D01*
X171958838Y-112828211D01*
X171896054Y-112593900D01*
X171803224Y-112369788D01*
X171681936Y-112159711D01*
X171534265Y-111967262D01*
X171534260Y-111967256D01*
X171362743Y-111795739D01*
X171362736Y-111795733D01*
X171170293Y-111648067D01*
X171170292Y-111648066D01*
X171170289Y-111648064D01*
X170960212Y-111526776D01*
X170960205Y-111526773D01*
X170736104Y-111433947D01*
X170501785Y-111371161D01*
X170261289Y-111339500D01*
X170261288Y-111339500D01*
X170018712Y-111339500D01*
X170018711Y-111339500D01*
X169778214Y-111371161D01*
X169543895Y-111433947D01*
X169319794Y-111526773D01*
X169319785Y-111526777D01*
X169109706Y-111648067D01*
X168917263Y-111795733D01*
X168917256Y-111795739D01*
X168745739Y-111967256D01*
X168745733Y-111967263D01*
X168598067Y-112159706D01*
X168476777Y-112369785D01*
X168476773Y-112369794D01*
X168383947Y-112593895D01*
X168321161Y-112828214D01*
X168289500Y-113068711D01*
X144080500Y-113068711D01*
X144080500Y-106486803D01*
X144100185Y-106419764D01*
X144152989Y-106374009D01*
X144222147Y-106364065D01*
X144247836Y-106370622D01*
X144282622Y-106383597D01*
X144282627Y-106383598D01*
X144342155Y-106389999D01*
X144342172Y-106390000D01*
X145140000Y-106390000D01*
X145140000Y-105323012D01*
X145197007Y-105355925D01*
X145324174Y-105390000D01*
X145455826Y-105390000D01*
X145582993Y-105355925D01*
X145640000Y-105323012D01*
X145640000Y-106390000D01*
X146437828Y-106390000D01*
X146437844Y-106389999D01*
X146497372Y-106383598D01*
X146497379Y-106383596D01*
X146632086Y-106333354D01*
X146632093Y-106333350D01*
X146747187Y-106247190D01*
X146747190Y-106247187D01*
X146833350Y-106132093D01*
X146833354Y-106132086D01*
X146883596Y-105997379D01*
X146883598Y-105997372D01*
X146889999Y-105937844D01*
X146890000Y-105937827D01*
X146890000Y-105140000D01*
X145823012Y-105140000D01*
X145855925Y-105082993D01*
X145890000Y-104955826D01*
X145890000Y-104824174D01*
X145855925Y-104697007D01*
X145823012Y-104640000D01*
X146890000Y-104640000D01*
X146890000Y-103842172D01*
X146889999Y-103842155D01*
X146883598Y-103782627D01*
X146883596Y-103782620D01*
X146833354Y-103647913D01*
X146833350Y-103647906D01*
X146747190Y-103532812D01*
X146747187Y-103532809D01*
X146632093Y-103446649D01*
X146632086Y-103446645D01*
X146497379Y-103396403D01*
X146497372Y-103396401D01*
X146437844Y-103390000D01*
X145640000Y-103390000D01*
X145640000Y-104456988D01*
X145582993Y-104424075D01*
X145455826Y-104390000D01*
X145324174Y-104390000D01*
X145197007Y-104424075D01*
X145140000Y-104456988D01*
X145140000Y-103390000D01*
X144342155Y-103390000D01*
X144282627Y-103396401D01*
X144282620Y-103396403D01*
X144247833Y-103409378D01*
X144178141Y-103414362D01*
X144116818Y-103380877D01*
X144083334Y-103319554D01*
X144080500Y-103293196D01*
X144080500Y-102112155D01*
X160860000Y-102112155D01*
X160860000Y-104210000D01*
X161860000Y-104210000D01*
X161860000Y-104710000D01*
X160860000Y-104710000D01*
X160860000Y-106807844D01*
X160866401Y-106867372D01*
X160866403Y-106867379D01*
X160916645Y-107002086D01*
X160916649Y-107002093D01*
X161002809Y-107117187D01*
X161002812Y-107117190D01*
X161117906Y-107203350D01*
X161117913Y-107203354D01*
X161252620Y-107253596D01*
X161252627Y-107253598D01*
X161312155Y-107259999D01*
X161312172Y-107260000D01*
X162110000Y-107260000D01*
X162110000Y-106193012D01*
X162167007Y-106225925D01*
X162294174Y-106260000D01*
X162425826Y-106260000D01*
X162552993Y-106225925D01*
X162610000Y-106193012D01*
X162610000Y-107260000D01*
X163407828Y-107260000D01*
X163407844Y-107259999D01*
X163467372Y-107253598D01*
X163467379Y-107253596D01*
X163602086Y-107203354D01*
X163602093Y-107203350D01*
X163717187Y-107117190D01*
X163717190Y-107117187D01*
X163803350Y-107002093D01*
X163803354Y-107002086D01*
X163853596Y-106867379D01*
X163853598Y-106867372D01*
X163859999Y-106807844D01*
X163860000Y-106807827D01*
X163860000Y-104710000D01*
X162860000Y-104710000D01*
X162860000Y-104210000D01*
X163860000Y-104210000D01*
X163860000Y-103241902D01*
X167159500Y-103241902D01*
X167159500Y-105678097D01*
X167196446Y-105911368D01*
X167269433Y-106135996D01*
X167326090Y-106247190D01*
X167376657Y-106346433D01*
X167515483Y-106537510D01*
X167682490Y-106704517D01*
X167873567Y-106843343D01*
X167972991Y-106894002D01*
X168084003Y-106950566D01*
X168084005Y-106950566D01*
X168084008Y-106950568D01*
X168204412Y-106989689D01*
X168308631Y-107023553D01*
X168541903Y-107060500D01*
X168541908Y-107060500D01*
X168778097Y-107060500D01*
X169011368Y-107023553D01*
X169235992Y-106950568D01*
X169446433Y-106843343D01*
X169637510Y-106704517D01*
X169804517Y-106537510D01*
X169943343Y-106346433D01*
X170050568Y-106135992D01*
X170123553Y-105911368D01*
X170160500Y-105678097D01*
X170160500Y-103241902D01*
X170123553Y-103008631D01*
X170089689Y-102904412D01*
X170050568Y-102784008D01*
X170050566Y-102784005D01*
X170050566Y-102784003D01*
X169943342Y-102573566D01*
X169804517Y-102382490D01*
X169637510Y-102215483D01*
X169446433Y-102076657D01*
X169235996Y-101969433D01*
X169011368Y-101896446D01*
X168778097Y-101859500D01*
X168778092Y-101859500D01*
X168541908Y-101859500D01*
X168541903Y-101859500D01*
X168308631Y-101896446D01*
X168084003Y-101969433D01*
X167873566Y-102076657D01*
X167764550Y-102155862D01*
X167682490Y-102215483D01*
X167682488Y-102215485D01*
X167682487Y-102215485D01*
X167515485Y-102382487D01*
X167515485Y-102382488D01*
X167515483Y-102382490D01*
X167455862Y-102464550D01*
X167376657Y-102573566D01*
X167269433Y-102784003D01*
X167196446Y-103008631D01*
X167159500Y-103241902D01*
X163860000Y-103241902D01*
X163860000Y-102112172D01*
X163859999Y-102112155D01*
X163853598Y-102052627D01*
X163853596Y-102052620D01*
X163803354Y-101917913D01*
X163803350Y-101917906D01*
X163717190Y-101802812D01*
X163717187Y-101802809D01*
X163602093Y-101716649D01*
X163602086Y-101716645D01*
X163467379Y-101666403D01*
X163467372Y-101666401D01*
X163407844Y-101660000D01*
X162610000Y-101660000D01*
X162610000Y-102726988D01*
X162552993Y-102694075D01*
X162425826Y-102660000D01*
X162294174Y-102660000D01*
X162167007Y-102694075D01*
X162110000Y-102726988D01*
X162110000Y-101660000D01*
X161312155Y-101660000D01*
X161252627Y-101666401D01*
X161252620Y-101666403D01*
X161117913Y-101716645D01*
X161117906Y-101716649D01*
X161002812Y-101802809D01*
X161002809Y-101802812D01*
X160916649Y-101917906D01*
X160916645Y-101917913D01*
X160866403Y-102052620D01*
X160866401Y-102052627D01*
X160860000Y-102112155D01*
X144080500Y-102112155D01*
X144080500Y-92011153D01*
X156549500Y-92011153D01*
X156549500Y-92168846D01*
X156580261Y-92323489D01*
X156580264Y-92323501D01*
X156640602Y-92469172D01*
X156640609Y-92469185D01*
X156728602Y-92600874D01*
X156749480Y-92667551D01*
X156749500Y-92669765D01*
X156749500Y-94783330D01*
X156749499Y-94783348D01*
X156749499Y-94949054D01*
X156749498Y-94949054D01*
X156790423Y-95101785D01*
X156819358Y-95151900D01*
X156819359Y-95151904D01*
X156819360Y-95151904D01*
X156841370Y-95190028D01*
X156869479Y-95238714D01*
X156869481Y-95238717D01*
X156988349Y-95357585D01*
X156988354Y-95357589D01*
X158721284Y-97090520D01*
X158721286Y-97090521D01*
X158721290Y-97090524D01*
X158858209Y-97169573D01*
X158858216Y-97169577D01*
X159010943Y-97210501D01*
X159010945Y-97210501D01*
X159176654Y-97210501D01*
X159176670Y-97210500D01*
X161797546Y-97210500D01*
X161864585Y-97230185D01*
X161910340Y-97282989D01*
X161920284Y-97352147D01*
X161908350Y-97388535D01*
X161908545Y-97388616D01*
X161907486Y-97391171D01*
X161906900Y-97392960D01*
X161906214Y-97394242D01*
X161828909Y-97580872D01*
X161828907Y-97580880D01*
X161789500Y-97778992D01*
X161789500Y-97981007D01*
X161828907Y-98179119D01*
X161828909Y-98179127D01*
X161906212Y-98365752D01*
X161906217Y-98365762D01*
X162018441Y-98533718D01*
X162161281Y-98676558D01*
X162329237Y-98788782D01*
X162329241Y-98788784D01*
X162329244Y-98788786D01*
X162515873Y-98866091D01*
X162713992Y-98905499D01*
X162713996Y-98905500D01*
X162713997Y-98905500D01*
X163366004Y-98905500D01*
X163366005Y-98905499D01*
X163564127Y-98866091D01*
X163750756Y-98788786D01*
X163918718Y-98676558D01*
X164061558Y-98533718D01*
X164173786Y-98365756D01*
X164251091Y-98179127D01*
X164290500Y-97981003D01*
X164290500Y-97778997D01*
X164251091Y-97580873D01*
X164173786Y-97394244D01*
X164173785Y-97394242D01*
X164173100Y-97392960D01*
X164172943Y-97392210D01*
X164171455Y-97388616D01*
X164172136Y-97388333D01*
X164158853Y-97324558D01*
X164183849Y-97259313D01*
X164240152Y-97217939D01*
X164282454Y-97210500D01*
X164389055Y-97210500D01*
X164389057Y-97210500D01*
X164541784Y-97169577D01*
X164678716Y-97090520D01*
X164790520Y-96978716D01*
X164869577Y-96841784D01*
X164910500Y-96689057D01*
X164910500Y-96530943D01*
X164869577Y-96378216D01*
X164855607Y-96354019D01*
X164790524Y-96241290D01*
X164790518Y-96241282D01*
X164678717Y-96129481D01*
X164678709Y-96129475D01*
X164541790Y-96050426D01*
X164541785Y-96050423D01*
X164477338Y-96033154D01*
X164389057Y-96009500D01*
X164389056Y-96009500D01*
X164382405Y-96007718D01*
X164322745Y-95971353D01*
X164292216Y-95908506D01*
X164290499Y-95887954D01*
X164290499Y-95190013D01*
X168557500Y-95190013D01*
X168557500Y-96040000D01*
X169757499Y-96040000D01*
X169732479Y-96100402D01*
X169707500Y-96225981D01*
X169707500Y-96354019D01*
X169732479Y-96479598D01*
X169757499Y-96540000D01*
X168557501Y-96540000D01*
X168557501Y-97389986D01*
X168567994Y-97492697D01*
X168623141Y-97659119D01*
X168623143Y-97659124D01*
X168715184Y-97808345D01*
X168839154Y-97932315D01*
X168988375Y-98024356D01*
X168988380Y-98024358D01*
X169154802Y-98079505D01*
X169154809Y-98079506D01*
X169257519Y-98089999D01*
X170107499Y-98089999D01*
X170107500Y-98089998D01*
X170107500Y-96890001D01*
X170167902Y-96915021D01*
X170293481Y-96940000D01*
X170421519Y-96940000D01*
X170547098Y-96915021D01*
X170607500Y-96890001D01*
X170607500Y-98089999D01*
X171457472Y-98089999D01*
X171457486Y-98089998D01*
X171560197Y-98079505D01*
X171726619Y-98024358D01*
X171726624Y-98024356D01*
X171875845Y-97932315D01*
X171999815Y-97808345D01*
X172091856Y-97659124D01*
X172091858Y-97659119D01*
X172147005Y-97492697D01*
X172147006Y-97492690D01*
X172157499Y-97389986D01*
X172157500Y-97389973D01*
X172157500Y-96540000D01*
X170957501Y-96540000D01*
X170982521Y-96479598D01*
X171007500Y-96354019D01*
X171007500Y-96225981D01*
X170982521Y-96100402D01*
X170957501Y-96040000D01*
X172157499Y-96040000D01*
X172157499Y-95190028D01*
X172157498Y-95190013D01*
X172147005Y-95087302D01*
X172091858Y-94920880D01*
X172091856Y-94920875D01*
X171999815Y-94771654D01*
X171875845Y-94647684D01*
X171726624Y-94555643D01*
X171726619Y-94555641D01*
X171560197Y-94500494D01*
X171560190Y-94500493D01*
X171457486Y-94490000D01*
X170607500Y-94490000D01*
X170607500Y-95689998D01*
X170547098Y-95664979D01*
X170421519Y-95640000D01*
X170293481Y-95640000D01*
X170167902Y-95664979D01*
X170107500Y-95689998D01*
X170107500Y-94490000D01*
X169257528Y-94490000D01*
X169257512Y-94490001D01*
X169154802Y-94500494D01*
X168988380Y-94555641D01*
X168988375Y-94555643D01*
X168839154Y-94647684D01*
X168715184Y-94771654D01*
X168623143Y-94920875D01*
X168623141Y-94920880D01*
X168567994Y-95087302D01*
X168567993Y-95087309D01*
X168557500Y-95190013D01*
X164290499Y-95190013D01*
X164290499Y-94767128D01*
X164284091Y-94707517D01*
X164233796Y-94572669D01*
X164233795Y-94572668D01*
X164233793Y-94572664D01*
X164147547Y-94457455D01*
X164147544Y-94457452D01*
X164032335Y-94371206D01*
X164032328Y-94371202D01*
X163897482Y-94320908D01*
X163897483Y-94320908D01*
X163837883Y-94314501D01*
X163837881Y-94314500D01*
X163837873Y-94314500D01*
X163837864Y-94314500D01*
X162242129Y-94314500D01*
X162242123Y-94314501D01*
X162182516Y-94320908D01*
X162047671Y-94371202D01*
X162047664Y-94371206D01*
X161932455Y-94457452D01*
X161932452Y-94457455D01*
X161846206Y-94572664D01*
X161846202Y-94572671D01*
X161795908Y-94707517D01*
X161789501Y-94767116D01*
X161789501Y-94767123D01*
X161789500Y-94767135D01*
X161789501Y-95885500D01*
X161769816Y-95952539D01*
X161717013Y-95998294D01*
X161665501Y-96009500D01*
X159390098Y-96009500D01*
X159323059Y-95989815D01*
X159302417Y-95973181D01*
X157986819Y-94657583D01*
X157953334Y-94596260D01*
X157950500Y-94569902D01*
X157950500Y-92675513D01*
X160679500Y-92675513D01*
X160679500Y-92864486D01*
X160709059Y-93051118D01*
X160767454Y-93230836D01*
X160834088Y-93361611D01*
X160853240Y-93399199D01*
X160964310Y-93552073D01*
X161097927Y-93685690D01*
X161250801Y-93796760D01*
X161330347Y-93837290D01*
X161419163Y-93882545D01*
X161419165Y-93882545D01*
X161419168Y-93882547D01*
X161515497Y-93913846D01*
X161598881Y-93940940D01*
X161785514Y-93970500D01*
X161785519Y-93970500D01*
X161974486Y-93970500D01*
X162161118Y-93940940D01*
X162340832Y-93882547D01*
X162509199Y-93796760D01*
X162662073Y-93685690D01*
X162795690Y-93552073D01*
X162906760Y-93399199D01*
X162946328Y-93321541D01*
X162994300Y-93270747D01*
X163062121Y-93253951D01*
X163128256Y-93276488D01*
X163167296Y-93321541D01*
X163187713Y-93361611D01*
X163308028Y-93527213D01*
X163452786Y-93671971D01*
X163607749Y-93784556D01*
X163618390Y-93792287D01*
X163734607Y-93851503D01*
X163800776Y-93885218D01*
X163800778Y-93885218D01*
X163800781Y-93885220D01*
X163905137Y-93919127D01*
X163995465Y-93948477D01*
X164096557Y-93964488D01*
X164197648Y-93980500D01*
X164197649Y-93980500D01*
X164402351Y-93980500D01*
X164402352Y-93980500D01*
X164604534Y-93948477D01*
X164799219Y-93885220D01*
X164981610Y-93792287D01*
X165074590Y-93724732D01*
X165147213Y-93671971D01*
X165147215Y-93671968D01*
X165147219Y-93671966D01*
X165291966Y-93527219D01*
X165291968Y-93527215D01*
X165291971Y-93527213D01*
X165384977Y-93399199D01*
X165412287Y-93361610D01*
X165505220Y-93179219D01*
X165568477Y-92984534D01*
X165600500Y-92782352D01*
X165600500Y-92577648D01*
X165586441Y-92488882D01*
X165568477Y-92375465D01*
X165539127Y-92285137D01*
X165505220Y-92180781D01*
X165505218Y-92180778D01*
X165505218Y-92180776D01*
X165457974Y-92088056D01*
X165412287Y-91998390D01*
X165404556Y-91987749D01*
X165291971Y-91832786D01*
X165147213Y-91688028D01*
X164981613Y-91567715D01*
X164981612Y-91567714D01*
X164981610Y-91567713D01*
X164928171Y-91540484D01*
X164877376Y-91492510D01*
X164860581Y-91424689D01*
X164883118Y-91358554D01*
X164928172Y-91319515D01*
X164981610Y-91292287D01*
X165074590Y-91224732D01*
X165147180Y-91171995D01*
X168557000Y-91171995D01*
X168557000Y-91408004D01*
X168557001Y-91408020D01*
X168582151Y-91599059D01*
X168587807Y-91642014D01*
X168614931Y-91743240D01*
X168648894Y-91869993D01*
X168739214Y-92088045D01*
X168739219Y-92088056D01*
X168792752Y-92180776D01*
X168857227Y-92292450D01*
X168857229Y-92292453D01*
X168857230Y-92292454D01*
X169000906Y-92479697D01*
X169000912Y-92479704D01*
X169167795Y-92646587D01*
X169167802Y-92646593D01*
X169205499Y-92675519D01*
X169355050Y-92790273D01*
X169483582Y-92864481D01*
X169559443Y-92908280D01*
X169559448Y-92908282D01*
X169559451Y-92908284D01*
X169777507Y-92998606D01*
X170005486Y-93059693D01*
X170239489Y-93090500D01*
X170239496Y-93090500D01*
X170475504Y-93090500D01*
X170475511Y-93090500D01*
X170709514Y-93059693D01*
X170937493Y-92998606D01*
X171155549Y-92908284D01*
X171359950Y-92790273D01*
X171547199Y-92646592D01*
X171714092Y-92479699D01*
X171857773Y-92292450D01*
X171975784Y-92088049D01*
X172066106Y-91869993D01*
X172127193Y-91642014D01*
X172158000Y-91408011D01*
X172158000Y-91171989D01*
X172127193Y-90937986D01*
X172066106Y-90710007D01*
X171975784Y-90491951D01*
X171975782Y-90491948D01*
X171975780Y-90491943D01*
X171933618Y-90418918D01*
X171857773Y-90287550D01*
X171714092Y-90100301D01*
X171714087Y-90100295D01*
X171547204Y-89933412D01*
X171547197Y-89933406D01*
X171359954Y-89789730D01*
X171359953Y-89789729D01*
X171359950Y-89789727D01*
X171278457Y-89742677D01*
X171155556Y-89671719D01*
X171155545Y-89671714D01*
X170937493Y-89581394D01*
X170709514Y-89520307D01*
X170709513Y-89520306D01*
X170709510Y-89520306D01*
X170475520Y-89489501D01*
X170475517Y-89489500D01*
X170475511Y-89489500D01*
X170239489Y-89489500D01*
X170239483Y-89489500D01*
X170239479Y-89489501D01*
X170005489Y-89520306D01*
X169777506Y-89581394D01*
X169559454Y-89671714D01*
X169559443Y-89671719D01*
X169355045Y-89789730D01*
X169167802Y-89933406D01*
X169167795Y-89933412D01*
X169000912Y-90100295D01*
X169000906Y-90100302D01*
X168857230Y-90287545D01*
X168739219Y-90491943D01*
X168739214Y-90491954D01*
X168648894Y-90710006D01*
X168587806Y-90937989D01*
X168557001Y-91171979D01*
X168557000Y-91171995D01*
X165147180Y-91171995D01*
X165147213Y-91171971D01*
X165147215Y-91171968D01*
X165147219Y-91171966D01*
X165291966Y-91027219D01*
X165291968Y-91027215D01*
X165291971Y-91027213D01*
X165359075Y-90934850D01*
X165412287Y-90861610D01*
X165505220Y-90679219D01*
X165568477Y-90484534D01*
X165600500Y-90282352D01*
X165600500Y-90077648D01*
X165568477Y-89875466D01*
X165505220Y-89680781D01*
X165505218Y-89680778D01*
X165505218Y-89680776D01*
X165471503Y-89614607D01*
X165412287Y-89498390D01*
X165404556Y-89487749D01*
X165291971Y-89332786D01*
X165147213Y-89188028D01*
X164981613Y-89067715D01*
X164981612Y-89067714D01*
X164981610Y-89067713D01*
X164924653Y-89038691D01*
X164799223Y-88974781D01*
X164604534Y-88911522D01*
X164429995Y-88883878D01*
X164402352Y-88879500D01*
X164197648Y-88879500D01*
X164173329Y-88883351D01*
X163995465Y-88911522D01*
X163800776Y-88974781D01*
X163618386Y-89067715D01*
X163452786Y-89188028D01*
X163308028Y-89332786D01*
X163187715Y-89498386D01*
X163094781Y-89680776D01*
X163031522Y-89875465D01*
X162999500Y-90077648D01*
X162999500Y-90282351D01*
X163031522Y-90484534D01*
X163094781Y-90679223D01*
X163187715Y-90861613D01*
X163308028Y-91027213D01*
X163452786Y-91171971D01*
X163618388Y-91292286D01*
X163671828Y-91319516D01*
X163722623Y-91367490D01*
X163739418Y-91435312D01*
X163716880Y-91501446D01*
X163671828Y-91540484D01*
X163618388Y-91567713D01*
X163452786Y-91688028D01*
X163308028Y-91832786D01*
X163187715Y-91998386D01*
X163121065Y-92129193D01*
X163073090Y-92179989D01*
X163005269Y-92196784D01*
X162939134Y-92174246D01*
X162910720Y-92143946D01*
X162909624Y-92144743D01*
X162868430Y-92088045D01*
X162795690Y-91987927D01*
X162662073Y-91854310D01*
X162509199Y-91743240D01*
X162445585Y-91710827D01*
X162340836Y-91657454D01*
X162161118Y-91599059D01*
X161974486Y-91569500D01*
X161974481Y-91569500D01*
X161785519Y-91569500D01*
X161785514Y-91569500D01*
X161598881Y-91599059D01*
X161419163Y-91657454D01*
X161250800Y-91743240D01*
X161163579Y-91806610D01*
X161097927Y-91854310D01*
X161097925Y-91854312D01*
X161097924Y-91854312D01*
X160964312Y-91987924D01*
X160964312Y-91987925D01*
X160964310Y-91987927D01*
X160947434Y-92011155D01*
X160853240Y-92140800D01*
X160767454Y-92309163D01*
X160709059Y-92488881D01*
X160679500Y-92675513D01*
X157950500Y-92675513D01*
X157950500Y-92669765D01*
X157970185Y-92602726D01*
X157971398Y-92600874D01*
X158059390Y-92469185D01*
X158059390Y-92469184D01*
X158059394Y-92469179D01*
X158119737Y-92323497D01*
X158150500Y-92168842D01*
X158150500Y-92011158D01*
X158150500Y-92011155D01*
X158150499Y-92011153D01*
X158119738Y-91856510D01*
X158119737Y-91856503D01*
X158119735Y-91856498D01*
X158059397Y-91710827D01*
X158059390Y-91710814D01*
X157971789Y-91579711D01*
X157971786Y-91579707D01*
X157860292Y-91468213D01*
X157860288Y-91468210D01*
X157729185Y-91380609D01*
X157729172Y-91380602D01*
X157583501Y-91320264D01*
X157583489Y-91320261D01*
X157428845Y-91289500D01*
X157428842Y-91289500D01*
X157271158Y-91289500D01*
X157271155Y-91289500D01*
X157116510Y-91320261D01*
X157116498Y-91320264D01*
X156970827Y-91380602D01*
X156970814Y-91380609D01*
X156839711Y-91468210D01*
X156839707Y-91468213D01*
X156728213Y-91579707D01*
X156728210Y-91579711D01*
X156640609Y-91710814D01*
X156640602Y-91710827D01*
X156580264Y-91856498D01*
X156580261Y-91856510D01*
X156549500Y-92011153D01*
X144080500Y-92011153D01*
X144080500Y-91001889D01*
X144100185Y-90934850D01*
X144152989Y-90889095D01*
X144222147Y-90879151D01*
X144285703Y-90908176D01*
X144292181Y-90914208D01*
X144412490Y-91034517D01*
X144603567Y-91173343D01*
X144702991Y-91224002D01*
X144814003Y-91280566D01*
X144814005Y-91280566D01*
X144814008Y-91280568D01*
X144933874Y-91319515D01*
X145038631Y-91353553D01*
X145271903Y-91390500D01*
X145271908Y-91390500D01*
X145508097Y-91390500D01*
X145741368Y-91353553D01*
X145965992Y-91280568D01*
X146176433Y-91173343D01*
X146367510Y-91034517D01*
X146534517Y-90867510D01*
X146673343Y-90676433D01*
X146780568Y-90465992D01*
X146853553Y-90241368D01*
X146890500Y-90008097D01*
X146890500Y-89771902D01*
X146853553Y-89538631D01*
X146786669Y-89332786D01*
X146780568Y-89314008D01*
X146780566Y-89314005D01*
X146780566Y-89314003D01*
X146673342Y-89103566D01*
X146534517Y-88912490D01*
X146367510Y-88745483D01*
X146176433Y-88606657D01*
X146174529Y-88605687D01*
X145965996Y-88499433D01*
X145741368Y-88426446D01*
X145508097Y-88389500D01*
X145508092Y-88389500D01*
X145271908Y-88389500D01*
X145271903Y-88389500D01*
X145038631Y-88426446D01*
X144814003Y-88499433D01*
X144603566Y-88606657D01*
X144494550Y-88685862D01*
X144412490Y-88745483D01*
X144412488Y-88745485D01*
X144412487Y-88745485D01*
X144292181Y-88865792D01*
X144230858Y-88899277D01*
X144161166Y-88894293D01*
X144105233Y-88852421D01*
X144080816Y-88786957D01*
X144080500Y-88778111D01*
X144080500Y-87595513D01*
X160679500Y-87595513D01*
X160679500Y-87784486D01*
X160709059Y-87971118D01*
X160767454Y-88150836D01*
X160853240Y-88319199D01*
X160964310Y-88472073D01*
X161097927Y-88605690D01*
X161250801Y-88716760D01*
X161307177Y-88745485D01*
X161419163Y-88802545D01*
X161419165Y-88802545D01*
X161419168Y-88802547D01*
X161515497Y-88833846D01*
X161598881Y-88860940D01*
X161785514Y-88890500D01*
X161785519Y-88890500D01*
X161974486Y-88890500D01*
X162161118Y-88860940D01*
X162340832Y-88802547D01*
X162509199Y-88716760D01*
X162662073Y-88605690D01*
X162795690Y-88472073D01*
X162906760Y-88319199D01*
X162992547Y-88150832D01*
X163050940Y-87971118D01*
X163080500Y-87784486D01*
X163080500Y-87595513D01*
X163050940Y-87408881D01*
X162992545Y-87229163D01*
X162906759Y-87060800D01*
X162897550Y-87048125D01*
X162795690Y-86907927D01*
X162662073Y-86774310D01*
X162509199Y-86663240D01*
X162340836Y-86577454D01*
X162161118Y-86519059D01*
X161974486Y-86489500D01*
X161974481Y-86489500D01*
X161785519Y-86489500D01*
X161785514Y-86489500D01*
X161598881Y-86519059D01*
X161419163Y-86577454D01*
X161250800Y-86663240D01*
X161163579Y-86726610D01*
X161097927Y-86774310D01*
X161097925Y-86774312D01*
X161097924Y-86774312D01*
X160964312Y-86907924D01*
X160964312Y-86907925D01*
X160964310Y-86907927D01*
X160916610Y-86973579D01*
X160853240Y-87060800D01*
X160767454Y-87229163D01*
X160709059Y-87408881D01*
X160679500Y-87595513D01*
X144080500Y-87595513D01*
X144080500Y-86171564D01*
X157085551Y-86171564D01*
X157085551Y-86360537D01*
X157115110Y-86547169D01*
X157173505Y-86726887D01*
X157259291Y-86895250D01*
X157370361Y-87048124D01*
X157503978Y-87181741D01*
X157656852Y-87292811D01*
X157736398Y-87333341D01*
X157825214Y-87378596D01*
X157825216Y-87378596D01*
X157825219Y-87378598D01*
X157918420Y-87408881D01*
X158004932Y-87436991D01*
X158191565Y-87466551D01*
X158191570Y-87466551D01*
X158380537Y-87466551D01*
X158567169Y-87436991D01*
X158746883Y-87378598D01*
X158915250Y-87292811D01*
X159068124Y-87181741D01*
X159201741Y-87048124D01*
X159312811Y-86895250D01*
X159398598Y-86726883D01*
X159456991Y-86547169D01*
X159466230Y-86488838D01*
X159486551Y-86360537D01*
X159486551Y-86171564D01*
X159456991Y-85984932D01*
X159398596Y-85805214D01*
X159312810Y-85636851D01*
X159201741Y-85483978D01*
X159068124Y-85350361D01*
X158915250Y-85239291D01*
X158746887Y-85153505D01*
X158567169Y-85095110D01*
X158380537Y-85065551D01*
X158380532Y-85065551D01*
X158191570Y-85065551D01*
X158191565Y-85065551D01*
X158004932Y-85095110D01*
X157825214Y-85153505D01*
X157656851Y-85239291D01*
X157619947Y-85266104D01*
X157503978Y-85350361D01*
X157503976Y-85350363D01*
X157503975Y-85350363D01*
X157370363Y-85483975D01*
X157370363Y-85483976D01*
X157370361Y-85483978D01*
X157322661Y-85549630D01*
X157259291Y-85636851D01*
X157173505Y-85805214D01*
X157115110Y-85984932D01*
X157085551Y-86171564D01*
X144080500Y-86171564D01*
X144080500Y-84548711D01*
X168259500Y-84548711D01*
X168259500Y-84791288D01*
X168291161Y-85031785D01*
X168353947Y-85266104D01*
X168444193Y-85483976D01*
X168446776Y-85490212D01*
X168568064Y-85700289D01*
X168568066Y-85700292D01*
X168568067Y-85700293D01*
X168715733Y-85892736D01*
X168715739Y-85892743D01*
X168887256Y-86064260D01*
X168887262Y-86064265D01*
X169079711Y-86211936D01*
X169289788Y-86333224D01*
X169513900Y-86426054D01*
X169748211Y-86488838D01*
X169928586Y-86512584D01*
X169988711Y-86520500D01*
X169988712Y-86520500D01*
X170231289Y-86520500D01*
X170279388Y-86514167D01*
X170471789Y-86488838D01*
X170706100Y-86426054D01*
X170930212Y-86333224D01*
X171140289Y-86211936D01*
X171332738Y-86064265D01*
X171504265Y-85892738D01*
X171651936Y-85700289D01*
X171773224Y-85490212D01*
X171866054Y-85266100D01*
X171928838Y-85031789D01*
X171960500Y-84791288D01*
X171960500Y-84548712D01*
X171928838Y-84308211D01*
X171866054Y-84073900D01*
X171773224Y-83849788D01*
X171651936Y-83639711D01*
X171527320Y-83477308D01*
X171504266Y-83447263D01*
X171504260Y-83447256D01*
X171332743Y-83275739D01*
X171332736Y-83275733D01*
X171140293Y-83128067D01*
X171140292Y-83128066D01*
X171140289Y-83128064D01*
X170930212Y-83006776D01*
X170898289Y-82993553D01*
X170706104Y-82913947D01*
X170471785Y-82851161D01*
X170231289Y-82819500D01*
X170231288Y-82819500D01*
X169988712Y-82819500D01*
X169988711Y-82819500D01*
X169748214Y-82851161D01*
X169513895Y-82913947D01*
X169289794Y-83006773D01*
X169289785Y-83006777D01*
X169079706Y-83128067D01*
X168887263Y-83275733D01*
X168887256Y-83275739D01*
X168715739Y-83447256D01*
X168715733Y-83447263D01*
X168568067Y-83639706D01*
X168446777Y-83849785D01*
X168446773Y-83849794D01*
X168353947Y-84073895D01*
X168291161Y-84308214D01*
X168259500Y-84548711D01*
X144080500Y-84548711D01*
X144080500Y-83913750D01*
X144080726Y-83906263D01*
X144087694Y-83791065D01*
X144098271Y-83616201D01*
X144100076Y-83601340D01*
X144102221Y-83589639D01*
X144151780Y-83319197D01*
X144155364Y-83304663D01*
X144164377Y-83275739D01*
X144240696Y-83030822D01*
X144245998Y-83016841D01*
X144363731Y-82755249D01*
X144370676Y-82742016D01*
X144519080Y-82496526D01*
X144527567Y-82484230D01*
X144704480Y-82258417D01*
X144714395Y-82247226D01*
X144917226Y-82044395D01*
X144928417Y-82034480D01*
X145154230Y-81857567D01*
X145166526Y-81849080D01*
X145412016Y-81700676D01*
X145425249Y-81693731D01*
X145686841Y-81575998D01*
X145700822Y-81570696D01*
X145974668Y-81485362D01*
X145989197Y-81481780D01*
X146271344Y-81430075D01*
X146286201Y-81428271D01*
X146576264Y-81410726D01*
X146583751Y-81410500D01*
X146645892Y-81410500D01*
X154012781Y-81410500D01*
X154079820Y-81430185D01*
G37*
%TD.AperFunction*%
%TA.AperFunction,Conductor*%
G36*
X163166554Y-81430185D02*
G01*
X163184582Y-81450990D01*
X163187063Y-81448510D01*
X163936414Y-82197861D01*
X163851306Y-82220667D01*
X163748694Y-82279910D01*
X163664910Y-82363694D01*
X163605667Y-82466306D01*
X163582861Y-82551414D01*
X162921818Y-81890371D01*
X162888333Y-81829048D01*
X162885499Y-81802690D01*
X162885499Y-81692129D01*
X162885498Y-81692123D01*
X162879091Y-81632517D01*
X162872820Y-81615703D01*
X162858696Y-81577832D01*
X162856507Y-81547225D01*
X162852140Y-81516853D01*
X162854037Y-81512697D01*
X162853712Y-81508140D01*
X162868417Y-81481210D01*
X162881165Y-81453297D01*
X162885009Y-81450826D01*
X162887198Y-81446818D01*
X162914128Y-81432112D01*
X162939943Y-81415523D01*
X162946142Y-81414631D01*
X162948521Y-81413333D01*
X162974878Y-81410500D01*
X163099515Y-81410500D01*
X163166554Y-81430185D01*
G37*
%TD.AperFunction*%
%TD*%
M02*
