M48
; DRILL file {KiCad 9.0.7} date 2026-04-08T20:28:43+0530
; FORMAT={-:-/ absolute / metric / decimal}
; #@! TF.CreationDate,2026-04-08T20:28:43+05:30
; #@! TF.GenerationSoftware,Kicad,Pcbnew,9.0.7
; #@! TF.FileFunction,Plated,1,2,PTH
FMAT,2
METRIC
; #@! TA.AperFunction,Plated,PTH,ViaDrill
T1C0.300
; #@! TA.AperFunction,Plated,PTH,ComponentDrill
T2C0.700
; #@! TA.AperFunction,Plated,PTH,ComponentDrill
T3C0.750
; #@! TA.AperFunction,Plated,PTH,ComponentDrill
T4C0.800
; #@! TA.AperFunction,Plated,PTH,ComponentDrill
T5C0.900
; #@! TA.AperFunction,Plated,PTH,ComponentDrill
T6C1.000
; #@! TA.AperFunction,Plated,PTH,ComponentDrill
T7C1.300
%
G90
G05
T1
X157.35Y-92.09
T2
X154.694Y-82.674
X158.286Y-86.266
X161.88Y-87.69
X161.88Y-92.77
T3
X163.04Y-95.34
X163.04Y-96.61
X163.04Y-97.88
T4
X164.3Y-90.18
X164.3Y-92.68
T5
X161.485Y-82.64
X164.025Y-82.64
T6
X145.39Y-89.89
X145.39Y-104.89
T7
X170.357Y-91.29
X170.357Y-96.29
T6
G00X162.36Y-105.76
M15
G01X162.36Y-103.16
M16
G05
G00X168.66Y-105.56
M15
G01X168.66Y-103.36
M16
G05
M30
