%TF.GenerationSoftware,KiCad,Pcbnew,9.0.7*%
%TF.CreationDate,2026-04-08T20:28:38+05:30*%
%TF.ProjectId,water_alaram,77617465-725f-4616-9c61-72616d2e6b69,rev?*%
%TF.SameCoordinates,Original*%
%TF.FileFunction,Copper,L1,Top*%
%TF.FilePolarity,Positive*%
%FSLAX46Y46*%
G04 Gerber Fmt 4.6, Leading zero omitted, Abs format (unit mm)*
G04 Created by KiCad (PCBNEW 9.0.7) date 2026-04-08 20:28:38*
%MOMM*%
%LPD*%
G01*
G04 APERTURE LIST*
G04 Aperture macros list*
%AMRoundRect*
0 Rectangle with rounded corners*
0 $1 Rounding radius*
0 $2 $3 $4 $5 $6 $7 $8 $9 X,Y pos of 4 corners*
0 Add a 4 corners polygon primitive as box body*
4,1,4,$2,$3,$4,$5,$6,$7,$8,$9,$2,$3,0*
0 Add four circle primitives for the rounded corners*
1,1,$1+$1,$2,$3*
1,1,$1+$1,$4,$5*
1,1,$1+$1,$6,$7*
1,1,$1+$1,$8,$9*
0 Add four rect primitives between the rounded corners*
20,1,$1+$1,$2,$3,$4,$5,0*
20,1,$1+$1,$4,$5,$6,$7,0*
20,1,$1+$1,$6,$7,$8,$9,0*
20,1,$1+$1,$8,$9,$2,$3,0*%
G04 Aperture macros list end*
%TA.AperFunction,ComponentPad*%
%ADD10R,1.500000X1.050000*%
%TD*%
%TA.AperFunction,ComponentPad*%
%ADD11O,1.500000X1.050000*%
%TD*%
%TA.AperFunction,ComponentPad*%
%ADD12RoundRect,0.250000X1.050000X-1.050000X1.050000X1.050000X-1.050000X1.050000X-1.050000X-1.050000X0*%
%TD*%
%TA.AperFunction,ComponentPad*%
%ADD13C,2.600000*%
%TD*%
%TA.AperFunction,ComponentPad*%
%ADD14R,2.000000X2.000000*%
%TD*%
%TA.AperFunction,ComponentPad*%
%ADD15C,2.000000*%
%TD*%
%TA.AperFunction,ComponentPad*%
%ADD16R,1.800000X1.800000*%
%TD*%
%TA.AperFunction,ComponentPad*%
%ADD17C,1.800000*%
%TD*%
%TA.AperFunction,ComponentPad*%
%ADD18C,1.400000*%
%TD*%
%TA.AperFunction,ComponentPad*%
%ADD19R,2.000000X4.600000*%
%TD*%
%TA.AperFunction,ComponentPad*%
%ADD20O,2.000000X4.200000*%
%TD*%
%TA.AperFunction,ComponentPad*%
%ADD21C,1.600000*%
%TD*%
%TA.AperFunction,ViaPad*%
%ADD22C,0.600000*%
%TD*%
%TA.AperFunction,Conductor*%
%ADD23C,0.200000*%
%TD*%
G04 APERTURE END LIST*
D10*
%TO.P,Q1,1,S*%
%TO.N,GND*%
X163040000Y-95340000D03*
D11*
%TO.P,Q1,2,G*%
%TO.N,/Gate*%
X163040000Y-96610000D03*
%TO.P,Q1,3,D*%
%TO.N,Net-(BZ1--)*%
X163040000Y-97880000D03*
%TD*%
D12*
%TO.P,J2,1,Pin_1*%
%TO.N,VCC*%
X170357500Y-96290000D03*
D13*
%TO.P,J2,2,Pin_2*%
%TO.N,/Gate*%
X170357500Y-91290000D03*
%TD*%
D14*
%TO.P,BZ1,1,+*%
%TO.N,VCC*%
X145390000Y-104890000D03*
D15*
%TO.P,BZ1,2,-*%
%TO.N,Net-(BZ1--)*%
X145390000Y-89890000D03*
%TD*%
D16*
%TO.P,D1,1,K*%
%TO.N,Net-(D1-K)*%
X161485000Y-82640000D03*
D17*
%TO.P,D1,2,A*%
%TO.N,VCC*%
X164025000Y-82640000D03*
%TD*%
D18*
%TO.P,R2,1*%
%TO.N,Net-(D1-K)*%
X154693949Y-82673949D03*
%TO.P,R2,2*%
%TO.N,GND*%
X158286051Y-86266051D03*
%TD*%
D19*
%TO.P,J1,1*%
%TO.N,VCC*%
X162360000Y-104460000D03*
D20*
%TO.P,J1,2*%
%TO.N,GND*%
X168660000Y-104460000D03*
%TD*%
D21*
%TO.P,C1,1*%
%TO.N,/Gate*%
X164300000Y-90180000D03*
%TO.P,C1,2*%
%TO.N,GND*%
X164300000Y-92680000D03*
%TD*%
D18*
%TO.P,R1,1*%
%TO.N,/Gate*%
X161880000Y-87690000D03*
%TO.P,R1,2*%
%TO.N,GND*%
X161880000Y-92770000D03*
%TD*%
D22*
%TO.N,/Gate*%
X157350000Y-92090000D03*
%TD*%
D23*
%TO.N,Net-(BZ1--)*%
X163040000Y-97880000D02*
X153380000Y-97880000D01*
X153380000Y-97880000D02*
X145390000Y-89890000D01*
%TO.N,/Gate*%
X165410000Y-91290000D02*
X164300000Y-90180000D01*
X164300000Y-90180000D02*
X161880000Y-87760000D01*
X161880000Y-87760000D02*
X161880000Y-87690000D01*
X159020000Y-87690000D02*
X157350000Y-89360000D01*
X170357500Y-91290000D02*
X165410000Y-91290000D01*
X157350000Y-89360000D02*
X157350000Y-92090000D01*
X161880000Y-87690000D02*
X159020000Y-87690000D01*
%TO.N,Net-(D1-K)*%
X154693949Y-82673949D02*
X161451051Y-82673949D01*
X161451051Y-82673949D02*
X161485000Y-82640000D01*
%TD*%
%TA.AperFunction,Conductor*%
%TO.N,GND*%
G36*
X154079820Y-81430185D02*
G01*
X154125575Y-81482989D01*
X154135519Y-81552147D01*
X154106494Y-81615703D01*
X154069075Y-81644985D01*
X154064751Y-81647187D01*
X153991122Y-81700683D01*
X153911876Y-81758259D01*
X153911874Y-81758261D01*
X153911873Y-81758261D01*
X153778261Y-81891873D01*
X153778261Y-81891874D01*
X153778259Y-81891876D01*
X153736430Y-81949449D01*
X153667189Y-82044749D01*
X153581403Y-82213112D01*
X153523008Y-82392830D01*
X153493449Y-82579462D01*
X153493449Y-82768435D01*
X153523008Y-82955067D01*
X153581403Y-83134785D01*
X153603222Y-83177606D01*
X153667189Y-83303148D01*
X153778259Y-83456022D01*
X153911876Y-83589639D01*
X154064750Y-83700709D01*
X154137999Y-83738031D01*
X154233112Y-83786494D01*
X154233114Y-83786494D01*
X154233117Y-83786496D01*
X154329446Y-83817795D01*
X154412830Y-83844889D01*
X154599463Y-83874449D01*
X154599468Y-83874449D01*
X154788435Y-83874449D01*
X154975067Y-83844889D01*
X154996838Y-83837815D01*
X155154781Y-83786496D01*
X155323148Y-83700709D01*
X155476022Y-83589639D01*
X155609639Y-83456022D01*
X155704424Y-83325562D01*
X155759753Y-83282898D01*
X155804741Y-83274449D01*
X159960501Y-83274449D01*
X160027540Y-83294134D01*
X160073295Y-83346938D01*
X160084501Y-83398449D01*
X160084501Y-83587876D01*
X160090908Y-83647483D01*
X160141202Y-83782328D01*
X160141206Y-83782335D01*
X160227452Y-83897544D01*
X160227455Y-83897547D01*
X160342664Y-83983793D01*
X160342671Y-83983797D01*
X160477517Y-84034091D01*
X160477516Y-84034091D01*
X160484444Y-84034835D01*
X160537127Y-84040500D01*
X162432872Y-84040499D01*
X162492483Y-84034091D01*
X162627331Y-83983796D01*
X162742546Y-83897546D01*
X162828796Y-83782331D01*
X162856429Y-83708243D01*
X162858601Y-83702420D01*
X162900471Y-83646486D01*
X162965936Y-83622068D01*
X163034209Y-83636919D01*
X163062464Y-83658071D01*
X163112636Y-83708243D01*
X163112641Y-83708247D01*
X163153636Y-83738031D01*
X163290978Y-83837815D01*
X163419375Y-83903237D01*
X163487393Y-83937895D01*
X163487396Y-83937896D01*
X163592221Y-83971955D01*
X163697049Y-84006015D01*
X163914778Y-84040500D01*
X163914779Y-84040500D01*
X164135221Y-84040500D01*
X164135222Y-84040500D01*
X164352951Y-84006015D01*
X164562606Y-83937895D01*
X164759022Y-83837815D01*
X164937365Y-83708242D01*
X165093242Y-83552365D01*
X165222815Y-83374022D01*
X165322895Y-83177606D01*
X165391015Y-82967951D01*
X165425500Y-82750222D01*
X165425500Y-82529778D01*
X165391015Y-82312049D01*
X165322895Y-82102394D01*
X165322895Y-82102393D01*
X165279123Y-82016488D01*
X165222815Y-81905978D01*
X165115492Y-81758259D01*
X165093247Y-81727641D01*
X165093243Y-81727636D01*
X164987788Y-81622181D01*
X164954303Y-81560858D01*
X164959287Y-81491166D01*
X165001159Y-81435233D01*
X165066623Y-81410816D01*
X165075469Y-81410500D01*
X172704108Y-81410500D01*
X172766249Y-81410500D01*
X172773736Y-81410726D01*
X173063796Y-81428271D01*
X173078657Y-81430075D01*
X173205781Y-81453372D01*
X173360798Y-81481780D01*
X173375335Y-81485363D01*
X173649172Y-81570695D01*
X173663163Y-81576000D01*
X173924743Y-81693727D01*
X173937989Y-81700680D01*
X174183465Y-81849075D01*
X174195776Y-81857573D01*
X174239561Y-81891876D01*
X174421573Y-82034473D01*
X174432781Y-82044403D01*
X174635596Y-82247218D01*
X174645526Y-82258426D01*
X174765481Y-82411538D01*
X174822422Y-82484217D01*
X174830928Y-82496540D01*
X174979316Y-82742004D01*
X174986275Y-82755263D01*
X175103997Y-83016831D01*
X175109306Y-83030832D01*
X175194635Y-83304663D01*
X175198219Y-83319201D01*
X175249923Y-83601340D01*
X175251728Y-83616205D01*
X175269274Y-83906263D01*
X175269500Y-83913750D01*
X175269500Y-114796249D01*
X175269274Y-114803736D01*
X175251728Y-115093794D01*
X175249923Y-115108659D01*
X175198219Y-115390798D01*
X175194635Y-115405336D01*
X175109306Y-115679167D01*
X175103997Y-115693168D01*
X174986275Y-115954736D01*
X174979316Y-115967995D01*
X174830928Y-116213459D01*
X174822422Y-116225782D01*
X174645526Y-116451573D01*
X174635596Y-116462781D01*
X174432781Y-116665596D01*
X174421573Y-116675526D01*
X174195782Y-116852422D01*
X174183459Y-116860928D01*
X173937995Y-117009316D01*
X173924736Y-117016275D01*
X173663168Y-117133997D01*
X173649167Y-117139306D01*
X173375336Y-117224635D01*
X173360798Y-117228219D01*
X173078659Y-117279923D01*
X173063794Y-117281728D01*
X172773736Y-117299274D01*
X172766249Y-117299500D01*
X146583751Y-117299500D01*
X146576264Y-117299274D01*
X146286205Y-117281728D01*
X146271340Y-117279923D01*
X145989201Y-117228219D01*
X145974663Y-117224635D01*
X145700832Y-117139306D01*
X145686831Y-117133997D01*
X145425263Y-117016275D01*
X145412004Y-117009316D01*
X145166540Y-116860928D01*
X145154217Y-116852422D01*
X144928426Y-116675526D01*
X144917218Y-116665596D01*
X144714403Y-116462781D01*
X144704473Y-116451573D01*
X144527573Y-116225776D01*
X144519075Y-116213465D01*
X144370680Y-115967989D01*
X144363727Y-115954743D01*
X144246000Y-115693163D01*
X144240693Y-115679167D01*
X144155364Y-115405336D01*
X144151780Y-115390798D01*
X144100076Y-115108659D01*
X144098271Y-115093794D01*
X144080726Y-114803736D01*
X144080500Y-114796249D01*
X144080500Y-113068711D01*
X168289500Y-113068711D01*
X168289500Y-113311288D01*
X168321161Y-113551785D01*
X168383947Y-113786104D01*
X168476773Y-114010205D01*
X168476776Y-114010212D01*
X168598064Y-114220289D01*
X168598066Y-114220292D01*
X168598067Y-114220293D01*
X168745733Y-114412736D01*
X168745739Y-114412743D01*
X168917256Y-114584260D01*
X168917262Y-114584265D01*
X169109711Y-114731936D01*
X169319788Y-114853224D01*
X169543900Y-114946054D01*
X169778211Y-115008838D01*
X169958586Y-115032584D01*
X170018711Y-115040500D01*
X170018712Y-115040500D01*
X170261289Y-115040500D01*
X170309388Y-115034167D01*
X170501789Y-115008838D01*
X170736100Y-114946054D01*
X170960212Y-114853224D01*
X171170289Y-114731936D01*
X171362738Y-114584265D01*
X171534265Y-114412738D01*
X171681936Y-114220289D01*
X171803224Y-114010212D01*
X171896054Y-113786100D01*
X171958838Y-113551789D01*
X171990500Y-113311288D01*
X171990500Y-113068712D01*
X171958838Y-112828211D01*
X171896054Y-112593900D01*
X171803224Y-112369788D01*
X171681936Y-112159711D01*
X171534265Y-111967262D01*
X171534260Y-111967256D01*
X171362743Y-111795739D01*
X171362736Y-111795733D01*
X171170293Y-111648067D01*
X171170292Y-111648066D01*
X171170289Y-111648064D01*
X170960212Y-111526776D01*
X170960205Y-111526773D01*
X170736104Y-111433947D01*
X170501785Y-111371161D01*
X170261289Y-111339500D01*
X170261288Y-111339500D01*
X170018712Y-111339500D01*
X170018711Y-111339500D01*
X169778214Y-111371161D01*
X169543895Y-111433947D01*
X169319794Y-111526773D01*
X169319785Y-111526777D01*
X169109706Y-111648067D01*
X168917263Y-111795733D01*
X168917256Y-111795739D01*
X168745739Y-111967256D01*
X168745733Y-111967263D01*
X168598067Y-112159706D01*
X168476777Y-112369785D01*
X168476773Y-112369794D01*
X168383947Y-112593895D01*
X168321161Y-112828214D01*
X168289500Y-113068711D01*
X144080500Y-113068711D01*
X144080500Y-106487336D01*
X144100185Y-106420297D01*
X144152989Y-106374542D01*
X144222147Y-106364598D01*
X144247831Y-106371153D01*
X144282517Y-106384091D01*
X144282516Y-106384091D01*
X144289444Y-106384835D01*
X144342127Y-106390500D01*
X146437872Y-106390499D01*
X146497483Y-106384091D01*
X146632331Y-106333796D01*
X146747546Y-106247546D01*
X146833796Y-106132331D01*
X146884091Y-105997483D01*
X146890500Y-105937873D01*
X146890499Y-103842128D01*
X146884091Y-103782517D01*
X146833796Y-103647669D01*
X146833795Y-103647668D01*
X146833793Y-103647664D01*
X146747547Y-103532455D01*
X146747544Y-103532452D01*
X146632335Y-103446206D01*
X146632328Y-103446202D01*
X146497482Y-103395908D01*
X146497483Y-103395908D01*
X146437883Y-103389501D01*
X146437881Y-103389500D01*
X146437873Y-103389500D01*
X146437864Y-103389500D01*
X144342129Y-103389500D01*
X144342123Y-103389501D01*
X144282516Y-103395908D01*
X144247833Y-103408845D01*
X144178141Y-103413829D01*
X144116818Y-103380344D01*
X144083334Y-103319020D01*
X144080500Y-103292663D01*
X144080500Y-102112135D01*
X160859500Y-102112135D01*
X160859500Y-106807870D01*
X160859501Y-106807876D01*
X160865908Y-106867483D01*
X160916202Y-107002328D01*
X160916206Y-107002335D01*
X161002452Y-107117544D01*
X161002455Y-107117547D01*
X161117664Y-107203793D01*
X161117671Y-107203797D01*
X161252517Y-107254091D01*
X161252516Y-107254091D01*
X161259444Y-107254835D01*
X161312127Y-107260500D01*
X163407872Y-107260499D01*
X163467483Y-107254091D01*
X163602331Y-107203796D01*
X163717546Y-107117546D01*
X163803796Y-107002331D01*
X163854091Y-106867483D01*
X163860500Y-106807873D01*
X163860499Y-103241947D01*
X167160000Y-103241947D01*
X167160000Y-104210000D01*
X168160000Y-104210000D01*
X168160000Y-104710000D01*
X167160000Y-104710000D01*
X167160000Y-105678052D01*
X167196934Y-105911247D01*
X167269897Y-106135802D01*
X167377085Y-106346171D01*
X167515866Y-106537186D01*
X167682813Y-106704133D01*
X167873828Y-106842914D01*
X168084195Y-106950102D01*
X168308744Y-107023063D01*
X168308750Y-107023065D01*
X168410000Y-107039101D01*
X168410000Y-105993012D01*
X168467007Y-106025925D01*
X168594174Y-106060000D01*
X168725826Y-106060000D01*
X168852993Y-106025925D01*
X168910000Y-105993012D01*
X168910000Y-107039100D01*
X169011249Y-107023065D01*
X169011255Y-107023063D01*
X169235804Y-106950102D01*
X169446171Y-106842914D01*
X169637186Y-106704133D01*
X169804133Y-106537186D01*
X169942914Y-106346171D01*
X170050102Y-106135802D01*
X170123065Y-105911247D01*
X170160000Y-105678052D01*
X170160000Y-104710000D01*
X169160000Y-104710000D01*
X169160000Y-104210000D01*
X170160000Y-104210000D01*
X170160000Y-103241947D01*
X170123065Y-103008752D01*
X170050102Y-102784197D01*
X169942914Y-102573828D01*
X169804133Y-102382813D01*
X169637186Y-102215866D01*
X169446171Y-102077085D01*
X169235802Y-101969897D01*
X169011247Y-101896934D01*
X168910000Y-101880897D01*
X168910000Y-102926988D01*
X168852993Y-102894075D01*
X168725826Y-102860000D01*
X168594174Y-102860000D01*
X168467007Y-102894075D01*
X168410000Y-102926988D01*
X168410000Y-101880897D01*
X168308752Y-101896934D01*
X168084197Y-101969897D01*
X167873828Y-102077085D01*
X167682813Y-102215866D01*
X167515866Y-102382813D01*
X167377085Y-102573828D01*
X167269897Y-102784197D01*
X167196934Y-103008752D01*
X167160000Y-103241947D01*
X163860499Y-103241947D01*
X163860499Y-102112128D01*
X163854091Y-102052517D01*
X163803796Y-101917669D01*
X163803795Y-101917668D01*
X163803793Y-101917664D01*
X163717547Y-101802455D01*
X163717544Y-101802452D01*
X163602335Y-101716206D01*
X163602328Y-101716202D01*
X163467482Y-101665908D01*
X163467483Y-101665908D01*
X163407883Y-101659501D01*
X163407881Y-101659500D01*
X163407873Y-101659500D01*
X163407864Y-101659500D01*
X161312129Y-101659500D01*
X161312123Y-101659501D01*
X161252516Y-101665908D01*
X161117671Y-101716202D01*
X161117664Y-101716206D01*
X161002455Y-101802452D01*
X161002452Y-101802455D01*
X160916206Y-101917664D01*
X160916202Y-101917671D01*
X160865908Y-102052517D01*
X160859501Y-102112116D01*
X160859501Y-102112123D01*
X160859500Y-102112135D01*
X144080500Y-102112135D01*
X144080500Y-91001889D01*
X144100185Y-90934850D01*
X144152989Y-90889095D01*
X144222147Y-90879151D01*
X144285703Y-90908176D01*
X144292181Y-90914208D01*
X144412490Y-91034517D01*
X144603567Y-91173343D01*
X144702991Y-91224002D01*
X144814003Y-91280566D01*
X144814005Y-91280566D01*
X144814008Y-91280568D01*
X144906292Y-91310553D01*
X145038631Y-91353553D01*
X145271903Y-91390500D01*
X145271908Y-91390500D01*
X145508097Y-91390500D01*
X145614126Y-91373705D01*
X145741368Y-91353553D01*
X145867566Y-91312547D01*
X145937404Y-91310553D01*
X145993563Y-91342798D01*
X152895139Y-98244374D01*
X152895149Y-98244385D01*
X152899479Y-98248715D01*
X152899480Y-98248716D01*
X153011284Y-98360520D01*
X153011286Y-98360521D01*
X153011290Y-98360524D01*
X153020363Y-98365762D01*
X153148216Y-98439577D01*
X153260019Y-98469534D01*
X153300942Y-98480500D01*
X153300943Y-98480500D01*
X161916603Y-98480500D01*
X161983642Y-98500185D01*
X162013711Y-98529720D01*
X162014578Y-98529010D01*
X162018444Y-98533721D01*
X162161281Y-98676558D01*
X162329237Y-98788782D01*
X162329241Y-98788784D01*
X162329244Y-98788786D01*
X162515873Y-98866091D01*
X162713992Y-98905499D01*
X162713996Y-98905500D01*
X162713997Y-98905500D01*
X163366004Y-98905500D01*
X163366005Y-98905499D01*
X163564127Y-98866091D01*
X163750756Y-98788786D01*
X163918718Y-98676558D01*
X164061558Y-98533718D01*
X164173786Y-98365756D01*
X164251091Y-98179127D01*
X164290500Y-97981003D01*
X164290500Y-97778997D01*
X164251091Y-97580873D01*
X164173786Y-97394244D01*
X164120094Y-97313889D01*
X164099217Y-97247214D01*
X164117701Y-97179834D01*
X164120078Y-97176134D01*
X164173786Y-97095756D01*
X164251091Y-96909127D01*
X164290500Y-96711003D01*
X164290500Y-96508997D01*
X164251091Y-96310873D01*
X164217451Y-96229661D01*
X164209983Y-96160194D01*
X164229592Y-96115144D01*
X164229101Y-96114876D01*
X164232102Y-96109379D01*
X164232748Y-96107896D01*
X164233352Y-96107089D01*
X164283597Y-95972376D01*
X164283598Y-95972372D01*
X164289999Y-95912844D01*
X164290000Y-95912827D01*
X164290000Y-95590000D01*
X163405866Y-95590000D01*
X163381674Y-95587617D01*
X163366004Y-95584500D01*
X163366003Y-95584500D01*
X163325830Y-95584500D01*
X163340075Y-95570255D01*
X163389444Y-95484745D01*
X163415000Y-95389370D01*
X163415000Y-95290630D01*
X163389444Y-95195255D01*
X163386400Y-95189983D01*
X168557000Y-95189983D01*
X168557000Y-97390001D01*
X168557001Y-97390018D01*
X168567500Y-97492796D01*
X168567501Y-97492799D01*
X168596689Y-97580880D01*
X168622686Y-97659334D01*
X168714788Y-97808656D01*
X168838844Y-97932712D01*
X168988166Y-98024814D01*
X169154703Y-98079999D01*
X169257491Y-98090500D01*
X171457508Y-98090499D01*
X171560297Y-98079999D01*
X171726834Y-98024814D01*
X171876156Y-97932712D01*
X172000212Y-97808656D01*
X172092314Y-97659334D01*
X172147499Y-97492797D01*
X172158000Y-97390009D01*
X172157999Y-95189992D01*
X172147499Y-95087203D01*
X172092314Y-94920666D01*
X172000212Y-94771344D01*
X171876156Y-94647288D01*
X171726834Y-94555186D01*
X171560297Y-94500001D01*
X171560295Y-94500000D01*
X171457510Y-94489500D01*
X169257498Y-94489500D01*
X169257481Y-94489501D01*
X169154703Y-94500000D01*
X169154700Y-94500001D01*
X168988168Y-94555185D01*
X168988163Y-94555187D01*
X168838842Y-94647289D01*
X168714789Y-94771342D01*
X168622687Y-94920663D01*
X168622686Y-94920666D01*
X168567501Y-95087203D01*
X168567501Y-95087204D01*
X168567500Y-95087204D01*
X168557000Y-95189983D01*
X163386400Y-95189983D01*
X163340075Y-95109745D01*
X163320330Y-95090000D01*
X164290000Y-95090000D01*
X164290000Y-94767172D01*
X164289999Y-94767155D01*
X164283598Y-94707627D01*
X164283596Y-94707620D01*
X164233354Y-94572913D01*
X164233350Y-94572906D01*
X164147190Y-94457812D01*
X164147187Y-94457809D01*
X164032093Y-94371649D01*
X164032086Y-94371645D01*
X163897379Y-94321403D01*
X163897372Y-94321401D01*
X163837844Y-94315000D01*
X163290000Y-94315000D01*
X163290000Y-95059670D01*
X163270255Y-95039925D01*
X163184745Y-94990556D01*
X163089370Y-94965000D01*
X162990630Y-94965000D01*
X162895255Y-94990556D01*
X162809745Y-95039925D01*
X162790000Y-95059670D01*
X162790000Y-94315000D01*
X162242155Y-94315000D01*
X162182627Y-94321401D01*
X162182620Y-94321403D01*
X162047913Y-94371645D01*
X162047906Y-94371649D01*
X161932812Y-94457809D01*
X161932809Y-94457812D01*
X161846649Y-94572906D01*
X161846645Y-94572913D01*
X161796403Y-94707620D01*
X161796401Y-94707627D01*
X161790000Y-94767155D01*
X161790000Y-95090000D01*
X162759670Y-95090000D01*
X162739925Y-95109745D01*
X162690556Y-95195255D01*
X162665000Y-95290630D01*
X162665000Y-95389370D01*
X162690556Y-95484745D01*
X162739925Y-95570255D01*
X162754170Y-95584500D01*
X162713997Y-95584500D01*
X162713996Y-95584500D01*
X162698326Y-95587617D01*
X162674134Y-95590000D01*
X161790000Y-95590000D01*
X161790000Y-95912844D01*
X161796401Y-95972372D01*
X161796403Y-95972379D01*
X161846645Y-96107086D01*
X161847251Y-96107895D01*
X161847604Y-96108841D01*
X161850897Y-96114872D01*
X161850030Y-96115345D01*
X161871670Y-96173359D01*
X161862547Y-96229661D01*
X161828910Y-96310868D01*
X161828907Y-96310880D01*
X161789500Y-96508992D01*
X161789500Y-96711007D01*
X161828907Y-96909119D01*
X161828909Y-96909127D01*
X161906214Y-97095757D01*
X161906900Y-97097040D01*
X161907056Y-97097789D01*
X161908545Y-97101384D01*
X161907863Y-97101666D01*
X161921147Y-97165442D01*
X161896151Y-97230687D01*
X161839848Y-97272061D01*
X161797546Y-97279500D01*
X153680097Y-97279500D01*
X153613058Y-97259815D01*
X153592416Y-97243181D01*
X150127117Y-93777882D01*
X161225669Y-93777882D01*
X161225670Y-93777883D01*
X161251059Y-93796329D01*
X161419362Y-93882085D01*
X161598997Y-93940451D01*
X161785553Y-93970000D01*
X161974447Y-93970000D01*
X162161002Y-93940451D01*
X162340637Y-93882085D01*
X162508937Y-93796331D01*
X162534328Y-93777883D01*
X162534328Y-93777882D01*
X161880001Y-93123554D01*
X161880000Y-93123554D01*
X161225669Y-93777882D01*
X150127117Y-93777882D01*
X148360388Y-92011153D01*
X156549500Y-92011153D01*
X156549500Y-92168846D01*
X156580261Y-92323489D01*
X156580264Y-92323501D01*
X156640602Y-92469172D01*
X156640609Y-92469185D01*
X156728210Y-92600288D01*
X156728213Y-92600292D01*
X156839707Y-92711786D01*
X156839711Y-92711789D01*
X156970814Y-92799390D01*
X156970827Y-92799397D01*
X157116498Y-92859735D01*
X157116503Y-92859737D01*
X157271153Y-92890499D01*
X157271156Y-92890500D01*
X157271158Y-92890500D01*
X157428844Y-92890500D01*
X157428845Y-92890499D01*
X157583497Y-92859737D01*
X157729179Y-92799394D01*
X157860289Y-92711789D01*
X157896526Y-92675552D01*
X160680000Y-92675552D01*
X160680000Y-92864447D01*
X160709548Y-93051002D01*
X160767914Y-93230637D01*
X160853666Y-93398933D01*
X160872116Y-93424328D01*
X161526446Y-92770000D01*
X161526446Y-92769999D01*
X161480369Y-92723922D01*
X161530000Y-92723922D01*
X161530000Y-92816078D01*
X161553852Y-92905095D01*
X161599930Y-92984905D01*
X161665095Y-93050070D01*
X161744905Y-93096148D01*
X161833922Y-93120000D01*
X161926078Y-93120000D01*
X162015095Y-93096148D01*
X162094905Y-93050070D01*
X162160070Y-92984905D01*
X162206148Y-92905095D01*
X162230000Y-92816078D01*
X162230000Y-92723922D01*
X162206148Y-92634905D01*
X162160070Y-92555095D01*
X162094905Y-92489930D01*
X162015095Y-92443852D01*
X161926078Y-92420000D01*
X161833922Y-92420000D01*
X161744905Y-92443852D01*
X161665095Y-92489930D01*
X161599930Y-92555095D01*
X161553852Y-92634905D01*
X161530000Y-92723922D01*
X161480369Y-92723922D01*
X160872116Y-92115669D01*
X160872116Y-92115670D01*
X160853669Y-92141060D01*
X160767914Y-92309362D01*
X160709548Y-92488997D01*
X160680000Y-92675552D01*
X157896526Y-92675552D01*
X157971789Y-92600289D01*
X158059394Y-92469179D01*
X158119737Y-92323497D01*
X158150500Y-92168842D01*
X158150500Y-92011158D01*
X158150500Y-92011155D01*
X158150499Y-92011153D01*
X158141726Y-91967047D01*
X158119737Y-91856503D01*
X158080641Y-91762116D01*
X161225669Y-91762116D01*
X161880000Y-92416446D01*
X161880001Y-92416446D01*
X162534328Y-91762116D01*
X162508933Y-91743666D01*
X162340637Y-91657914D01*
X162161002Y-91599548D01*
X161974447Y-91570000D01*
X161785553Y-91570000D01*
X161598997Y-91599548D01*
X161419362Y-91657914D01*
X161251060Y-91743669D01*
X161225670Y-91762116D01*
X161225669Y-91762116D01*
X158080641Y-91762116D01*
X158072999Y-91743666D01*
X158059397Y-91710827D01*
X158059390Y-91710814D01*
X157971398Y-91579125D01*
X157950520Y-91512447D01*
X157950500Y-91510234D01*
X157950500Y-89660097D01*
X157970185Y-89593058D01*
X157986819Y-89572416D01*
X159232417Y-88326819D01*
X159293740Y-88293334D01*
X159320098Y-88290500D01*
X160769208Y-88290500D01*
X160836247Y-88310185D01*
X160869524Y-88341612D01*
X160964310Y-88472073D01*
X161097927Y-88605690D01*
X161250801Y-88716760D01*
X161307177Y-88745485D01*
X161419163Y-88802545D01*
X161419165Y-88802545D01*
X161419168Y-88802547D01*
X161515497Y-88833846D01*
X161598881Y-88860940D01*
X161785514Y-88890500D01*
X161785519Y-88890500D01*
X161974479Y-88890500D01*
X161974481Y-88890500D01*
X162073324Y-88874844D01*
X162142615Y-88883798D01*
X162180401Y-88909636D01*
X163005922Y-89735157D01*
X163039407Y-89796480D01*
X163036173Y-89861155D01*
X163031522Y-89875468D01*
X162999500Y-90077648D01*
X162999500Y-90282351D01*
X163031522Y-90484534D01*
X163094781Y-90679223D01*
X163187715Y-90861613D01*
X163308028Y-91027213D01*
X163452786Y-91171971D01*
X163618385Y-91292284D01*
X163618387Y-91292285D01*
X163618390Y-91292287D01*
X163672378Y-91319795D01*
X163723174Y-91367769D01*
X163739969Y-91435590D01*
X163717432Y-91501725D01*
X163672378Y-91540765D01*
X163618644Y-91568143D01*
X163574077Y-91600523D01*
X163574077Y-91600524D01*
X164253554Y-92280000D01*
X164247339Y-92280000D01*
X164145606Y-92307259D01*
X164054394Y-92359920D01*
X163979920Y-92434394D01*
X163927259Y-92525606D01*
X163900000Y-92627339D01*
X163900000Y-92633553D01*
X163220524Y-91954077D01*
X163220523Y-91954077D01*
X163188143Y-91998644D01*
X163121104Y-92130217D01*
X163073129Y-92181013D01*
X163005308Y-92197808D01*
X162939173Y-92175270D01*
X162910144Y-92144314D01*
X162909196Y-92145004D01*
X162887883Y-92115670D01*
X162887882Y-92115669D01*
X162233554Y-92769999D01*
X162233554Y-92770000D01*
X162887882Y-93424328D01*
X162887883Y-93424328D01*
X162906333Y-93398935D01*
X162906333Y-93398934D01*
X162946327Y-93320442D01*
X162994301Y-93269646D01*
X163062122Y-93252850D01*
X163128257Y-93275387D01*
X163167297Y-93320441D01*
X163188141Y-93361350D01*
X163188147Y-93361359D01*
X163220523Y-93405921D01*
X163220524Y-93405922D01*
X163900000Y-92726446D01*
X163900000Y-92732661D01*
X163927259Y-92834394D01*
X163979920Y-92925606D01*
X164054394Y-93000080D01*
X164145606Y-93052741D01*
X164247339Y-93080000D01*
X164253553Y-93080000D01*
X163574076Y-93759474D01*
X163618650Y-93791859D01*
X163800968Y-93884755D01*
X163995582Y-93947990D01*
X164197683Y-93980000D01*
X164402317Y-93980000D01*
X164604417Y-93947990D01*
X164799031Y-93884755D01*
X164981349Y-93791859D01*
X165025921Y-93759474D01*
X164346447Y-93080000D01*
X164352661Y-93080000D01*
X164454394Y-93052741D01*
X164545606Y-93000080D01*
X164620080Y-92925606D01*
X164672741Y-92834394D01*
X164700000Y-92732661D01*
X164700000Y-92726446D01*
X165379474Y-93405921D01*
X165411859Y-93361349D01*
X165504755Y-93179031D01*
X165567990Y-92984417D01*
X165600000Y-92782317D01*
X165600000Y-92577682D01*
X165567990Y-92375582D01*
X165504755Y-92180968D01*
X165448619Y-92070795D01*
X165435723Y-92002125D01*
X165462000Y-91937385D01*
X165519106Y-91897128D01*
X165559104Y-91890500D01*
X168574534Y-91890500D01*
X168641573Y-91910185D01*
X168687328Y-91962989D01*
X168689095Y-91967047D01*
X168739214Y-92088045D01*
X168739219Y-92088056D01*
X168785862Y-92168842D01*
X168857227Y-92292450D01*
X168857229Y-92292453D01*
X168857230Y-92292454D01*
X169000906Y-92479697D01*
X169000912Y-92479704D01*
X169167795Y-92646587D01*
X169167802Y-92646593D01*
X169268580Y-92723922D01*
X169355050Y-92790273D01*
X169475362Y-92859735D01*
X169559443Y-92908280D01*
X169559448Y-92908282D01*
X169559451Y-92908284D01*
X169777507Y-92998606D01*
X170005486Y-93059693D01*
X170239489Y-93090500D01*
X170239496Y-93090500D01*
X170475504Y-93090500D01*
X170475511Y-93090500D01*
X170709514Y-93059693D01*
X170937493Y-92998606D01*
X171155549Y-92908284D01*
X171359950Y-92790273D01*
X171547199Y-92646592D01*
X171714092Y-92479699D01*
X171857773Y-92292450D01*
X171975784Y-92088049D01*
X172066106Y-91869993D01*
X172127193Y-91642014D01*
X172158000Y-91408011D01*
X172158000Y-91171989D01*
X172127193Y-90937986D01*
X172066106Y-90710007D01*
X171975784Y-90491951D01*
X171975782Y-90491948D01*
X171975780Y-90491943D01*
X171933618Y-90418918D01*
X171857773Y-90287550D01*
X171714092Y-90100301D01*
X171714087Y-90100295D01*
X171547204Y-89933412D01*
X171547197Y-89933406D01*
X171359954Y-89789730D01*
X171359953Y-89789729D01*
X171359950Y-89789727D01*
X171265432Y-89735157D01*
X171155556Y-89671719D01*
X171155545Y-89671714D01*
X170937493Y-89581394D01*
X170903987Y-89572416D01*
X170709514Y-89520307D01*
X170709513Y-89520306D01*
X170709510Y-89520306D01*
X170475520Y-89489501D01*
X170475517Y-89489500D01*
X170475511Y-89489500D01*
X170239489Y-89489500D01*
X170239483Y-89489500D01*
X170239479Y-89489501D01*
X170005489Y-89520306D01*
X169777506Y-89581394D01*
X169559454Y-89671714D01*
X169559443Y-89671719D01*
X169355045Y-89789730D01*
X169167802Y-89933406D01*
X169167795Y-89933412D01*
X169000912Y-90100295D01*
X169000906Y-90100302D01*
X168857230Y-90287545D01*
X168739219Y-90491943D01*
X168739214Y-90491954D01*
X168689095Y-90612953D01*
X168645254Y-90667356D01*
X168578960Y-90689421D01*
X168574534Y-90689500D01*
X165710097Y-90689500D01*
X165680656Y-90680855D01*
X165650670Y-90674332D01*
X165645654Y-90670577D01*
X165643058Y-90669815D01*
X165622416Y-90653181D01*
X165594077Y-90624842D01*
X165560592Y-90563519D01*
X165563828Y-90498841D01*
X165565543Y-90493563D01*
X165568477Y-90484534D01*
X165600500Y-90282352D01*
X165600500Y-90077648D01*
X165568477Y-89875466D01*
X165505220Y-89680781D01*
X165505218Y-89680778D01*
X165505218Y-89680776D01*
X165460523Y-89593058D01*
X165412287Y-89498390D01*
X165404556Y-89487749D01*
X165291971Y-89332786D01*
X165147213Y-89188028D01*
X164981612Y-89067714D01*
X164799223Y-88974781D01*
X164604534Y-88911522D01*
X164429488Y-88883798D01*
X164402352Y-88879500D01*
X164197648Y-88879500D01*
X164170512Y-88883798D01*
X163995468Y-88911522D01*
X163986717Y-88914365D01*
X163981154Y-88916173D01*
X163911313Y-88918167D01*
X163855157Y-88885922D01*
X163077550Y-88108315D01*
X163044065Y-88046992D01*
X163047302Y-87982311D01*
X163050940Y-87971118D01*
X163067063Y-87869316D01*
X163080500Y-87784486D01*
X163080500Y-87595513D01*
X163050940Y-87408881D01*
X162992545Y-87229163D01*
X162921382Y-87089499D01*
X162906760Y-87060801D01*
X162795690Y-86907927D01*
X162662073Y-86774310D01*
X162509199Y-86663240D01*
X162340836Y-86577454D01*
X162161118Y-86519059D01*
X161974486Y-86489500D01*
X161974481Y-86489500D01*
X161785519Y-86489500D01*
X161785514Y-86489500D01*
X161598881Y-86519059D01*
X161419163Y-86577454D01*
X161250800Y-86663240D01*
X161163579Y-86726610D01*
X161097927Y-86774310D01*
X161097925Y-86774312D01*
X161097924Y-86774312D01*
X160964312Y-86907924D01*
X160964312Y-86907925D01*
X160964310Y-86907927D01*
X160869526Y-87038386D01*
X160814196Y-87081051D01*
X160769208Y-87089500D01*
X159414426Y-87089500D01*
X159347387Y-87069815D01*
X159301632Y-87017011D01*
X159291688Y-86947853D01*
X159311132Y-86899938D01*
X159309837Y-86899144D01*
X159312378Y-86894996D01*
X159398136Y-86726688D01*
X159456502Y-86547053D01*
X159461413Y-86516051D01*
X158531026Y-86516051D01*
X158566121Y-86480956D01*
X158612199Y-86401146D01*
X158636051Y-86312129D01*
X158636051Y-86219973D01*
X158612199Y-86130956D01*
X158566121Y-86051146D01*
X158531026Y-86016051D01*
X158536051Y-86016051D01*
X159461413Y-86016051D01*
X159456502Y-85985048D01*
X159398136Y-85805413D01*
X159312380Y-85637110D01*
X159201365Y-85484309D01*
X159201361Y-85484304D01*
X159067797Y-85350740D01*
X159067792Y-85350736D01*
X158914991Y-85239721D01*
X158746686Y-85153964D01*
X158567055Y-85095600D01*
X158567046Y-85095598D01*
X158536051Y-85090688D01*
X158536051Y-86016051D01*
X158531026Y-86016051D01*
X158500956Y-85985981D01*
X158421146Y-85939903D01*
X158332129Y-85916051D01*
X158239973Y-85916051D01*
X158150956Y-85939903D01*
X158071146Y-85985981D01*
X158005981Y-86051146D01*
X157959903Y-86130956D01*
X157936051Y-86219973D01*
X157936051Y-86312129D01*
X157959903Y-86401146D01*
X158005981Y-86480956D01*
X158041076Y-86516051D01*
X157110689Y-86516051D01*
X157115599Y-86547053D01*
X157173965Y-86726688D01*
X157259721Y-86894991D01*
X157370736Y-87047792D01*
X157370740Y-87047797D01*
X157504304Y-87181361D01*
X157504309Y-87181365D01*
X157657110Y-87292380D01*
X157825413Y-87378136D01*
X158005048Y-87436502D01*
X158126574Y-87455751D01*
X158189709Y-87485680D01*
X158226640Y-87544992D01*
X158225642Y-87614855D01*
X158194857Y-87665905D01*
X156981286Y-88879478D01*
X156869481Y-88991282D01*
X156869480Y-88991284D01*
X156825354Y-89067713D01*
X156790423Y-89128215D01*
X156749499Y-89280943D01*
X156749499Y-89280945D01*
X156749499Y-89449046D01*
X156749500Y-89449059D01*
X156749500Y-91510234D01*
X156729815Y-91577273D01*
X156728602Y-91579125D01*
X156640609Y-91710814D01*
X156640602Y-91710827D01*
X156580264Y-91856498D01*
X156580261Y-91856510D01*
X156549500Y-92011153D01*
X148360388Y-92011153D01*
X146842798Y-90493563D01*
X146809313Y-90432240D01*
X146812547Y-90367566D01*
X146853553Y-90241368D01*
X146873705Y-90114126D01*
X146890500Y-90008097D01*
X146890500Y-89771902D01*
X146853553Y-89538631D01*
X146786669Y-89332786D01*
X146780568Y-89314008D01*
X146780566Y-89314005D01*
X146780566Y-89314003D01*
X146699500Y-89154903D01*
X146673343Y-89103567D01*
X146534517Y-88912490D01*
X146367510Y-88745483D01*
X146176433Y-88606657D01*
X146174529Y-88605687D01*
X145965996Y-88499433D01*
X145741368Y-88426446D01*
X145508097Y-88389500D01*
X145508092Y-88389500D01*
X145271908Y-88389500D01*
X145271903Y-88389500D01*
X145038631Y-88426446D01*
X144814003Y-88499433D01*
X144603566Y-88606657D01*
X144494550Y-88685862D01*
X144412490Y-88745483D01*
X144412488Y-88745485D01*
X144412487Y-88745485D01*
X144292181Y-88865792D01*
X144230858Y-88899277D01*
X144161166Y-88894293D01*
X144105233Y-88852421D01*
X144080816Y-88786957D01*
X144080500Y-88778111D01*
X144080500Y-86016051D01*
X157110689Y-86016051D01*
X158036051Y-86016051D01*
X158036051Y-85090688D01*
X158036050Y-85090688D01*
X158005055Y-85095598D01*
X158005046Y-85095600D01*
X157825415Y-85153964D01*
X157657110Y-85239721D01*
X157504309Y-85350736D01*
X157504304Y-85350740D01*
X157370740Y-85484304D01*
X157370736Y-85484309D01*
X157259721Y-85637110D01*
X157173965Y-85805413D01*
X157115599Y-85985048D01*
X157110689Y-86016051D01*
X144080500Y-86016051D01*
X144080500Y-84548711D01*
X168259500Y-84548711D01*
X168259500Y-84791288D01*
X168291161Y-85031785D01*
X168353947Y-85266104D01*
X168389003Y-85350736D01*
X168446776Y-85490212D01*
X168568064Y-85700289D01*
X168568066Y-85700292D01*
X168568067Y-85700293D01*
X168715733Y-85892736D01*
X168715739Y-85892743D01*
X168887256Y-86064260D01*
X168887262Y-86064265D01*
X169079711Y-86211936D01*
X169289788Y-86333224D01*
X169513900Y-86426054D01*
X169748211Y-86488838D01*
X169928586Y-86512584D01*
X169988711Y-86520500D01*
X169988712Y-86520500D01*
X170231289Y-86520500D01*
X170279388Y-86514167D01*
X170471789Y-86488838D01*
X170706100Y-86426054D01*
X170930212Y-86333224D01*
X171140289Y-86211936D01*
X171332738Y-86064265D01*
X171504265Y-85892738D01*
X171651936Y-85700289D01*
X171773224Y-85490212D01*
X171866054Y-85266100D01*
X171928838Y-85031789D01*
X171960500Y-84791288D01*
X171960500Y-84548712D01*
X171928838Y-84308211D01*
X171866054Y-84073900D01*
X171773224Y-83849788D01*
X171651936Y-83639711D01*
X171584908Y-83552358D01*
X171504266Y-83447263D01*
X171504260Y-83447256D01*
X171332743Y-83275739D01*
X171332736Y-83275733D01*
X171140293Y-83128067D01*
X171140292Y-83128066D01*
X171140289Y-83128064D01*
X170930212Y-83006776D01*
X170930205Y-83006773D01*
X170706104Y-82913947D01*
X170471785Y-82851161D01*
X170231289Y-82819500D01*
X170231288Y-82819500D01*
X169988712Y-82819500D01*
X169988711Y-82819500D01*
X169748214Y-82851161D01*
X169513895Y-82913947D01*
X169289794Y-83006773D01*
X169289785Y-83006777D01*
X169079706Y-83128067D01*
X168887263Y-83275733D01*
X168887256Y-83275739D01*
X168715739Y-83447256D01*
X168715733Y-83447263D01*
X168568067Y-83639706D01*
X168568064Y-83639710D01*
X168568064Y-83639711D01*
X168563577Y-83647483D01*
X168446777Y-83849785D01*
X168446773Y-83849794D01*
X168353947Y-84073895D01*
X168291161Y-84308214D01*
X168259500Y-84548711D01*
X144080500Y-84548711D01*
X144080500Y-83913750D01*
X144080726Y-83906263D01*
X144084866Y-83837815D01*
X144098271Y-83616201D01*
X144100076Y-83601340D01*
X144102221Y-83589639D01*
X144151780Y-83319197D01*
X144155364Y-83304663D01*
X144158645Y-83294134D01*
X144240696Y-83030822D01*
X144245998Y-83016841D01*
X144363731Y-82755249D01*
X144370676Y-82742016D01*
X144519080Y-82496526D01*
X144527567Y-82484230D01*
X144704480Y-82258417D01*
X144714395Y-82247226D01*
X144917226Y-82044395D01*
X144928417Y-82034480D01*
X145154230Y-81857567D01*
X145166526Y-81849080D01*
X145412016Y-81700676D01*
X145425249Y-81693731D01*
X145686841Y-81575998D01*
X145700822Y-81570696D01*
X145974668Y-81485362D01*
X145989197Y-81481780D01*
X146271344Y-81430075D01*
X146286201Y-81428271D01*
X146576264Y-81410726D01*
X146583751Y-81410500D01*
X146645892Y-81410500D01*
X154012781Y-81410500D01*
X154079820Y-81430185D01*
G37*
%TD.AperFunction*%
%TD*%
M02*
